<svg xmlns="http://www.w3.org/2000/svg" width="25" height="25" viewBox="0 0 194.35 156.969">
  <defs>
    <style>
      .cls-1 {
        fill-rule: evenodd;
      }
    </style>
  </defs>
  <path id="Forma_1" data-name="Forma 1" class="cls-1" d="M1239.66,193.533l22.98-68.567c1.15-3.294.28-5.273-.65-6.582-2.38-3.352-7.28-3.381-8.23-3.381l-129.85-.024-3.47-16.39c-0.93-3.869-3.7-7.562-9.27-7.562h-36.49c-3.78,0-5.84,1.765-5.84,5.291v9.465c0,3.41,2.05,4.3,5.97,4.3h30.81l23.58,99.82a22.525,22.525,0,0,0-5.78,15.106c0,11.84,9.45,22.747,21.53,22.747,11.4,0,19.94-10.651,21.33-17h45.93c1.38,6.351,8.31,17.256,21.33,17.256,11.87,0,21.51-10.251,21.51-22.066,0-11.754-7.16-22.182-21.39-22.182-5.92,0-12.94,3.174-16.2,7.94h-56.43c-4.1-6.349-9.69-8.317-15.35-8.537L1144.91,199h85.86c6.47,0,7.74-2.357,8.89-5.467h0Zm-103.07,32.146a8.18,8.18,0,1,1,8.19,8.169A8.187,8.187,0,0,1,1136.59,225.679Zm97.12,8.058a8.063,8.063,0,1,1,8.08-8.063A8.089,8.089,0,0,1,1233.71,233.737Z" transform="translate(-1068.84 -91.031)"/>
</svg>
