<svg xmlns="http://www.w3.org/2000/svg" width="25" height="25" viewBox="0 0 102.97 122.25">
  <defs>
    <style>
      .cls-1 {
        fill-rule: evenodd;
      }
    </style>
  </defs>
  <path id="Forma_1" data-name="Forma 1" class="cls-1" d="M1149.33,102.8H1123.5a38.481,38.481,0,0,0-38.51,38.328h102.97A38.728,38.728,0,0,0,1149.33,102.8Zm-8.31-17.541a8.348,8.348,0,0,1,5.39,1.9h9.32a26.278,26.278,0,0,0,7.41-18.324,26.725,26.725,0,1,0-39.75,23.24,8.742,8.742,0,0,1,8.42-6.815h9.21Zm-44.13-14.193a12.461,12.461,0,0,0,3.59,7.264,13.522,13.522,0,0,0,5.51,3.241,4.666,4.666,0,0,1-.12-1.228V58.658a5.045,5.045,0,0,1,.12-1.336,11.97,11.97,0,0,0-5.51,3.239c-0.11.11-.33,0.335-0.45,0.445V60.111a38.926,38.926,0,0,1,.56-6.256,26.713,26.713,0,0,1,1.69-6.036,26.562,26.562,0,0,1,2.69-5.7,32.89,32.89,0,0,1,3.6-5.137,0.872,0.872,0,0,0,.22-0.45,3.347,3.347,0,0,0,2.7-.894,35.1,35.1,0,0,1,49.41,0,3.178,3.178,0,0,0,2.69.894c0.11,0.111.11,0.335,0.23,0.45a32.83,32.83,0,0,1,3.59,5.137,45.419,45.419,0,0,1,2.7,5.7,56.271,56.271,0,0,1,1.68,6.146,37.812,37.812,0,0,1,.56,6.26V61.12a1.691,1.691,0,0,0-.45-0.45,13.529,13.529,0,0,0-5.5-3.239,5.529,5.529,0,0,1,.11,1.341V80.338a4.252,4.252,0,0,1-.11,1.228,9.637,9.637,0,0,0,1.68-.559v7.039a11.414,11.414,0,0,1-.22,2.122,3.2,3.2,0,0,1-.56,1.233,2.5,2.5,0,0,1-.9.556,5.686,5.686,0,0,1-1.46.224h-20.78a3.716,3.716,0,0,0-3.25-1.9h-9.21a3.606,3.606,0,0,0-3.59,3.576,3.7,3.7,0,0,0,3.7,3.574h9.21a3.891,3.891,0,0,0,3.26-1.9h21.67a6.476,6.476,0,0,0,2.13-.45,5.974,5.974,0,0,0,2.25-1.45,7.462,7.462,0,0,0,1.35-2.457,13.512,13.512,0,0,0,.45-3.241V78.661c0.11-.111.22-0.221,0.33-0.335a12.474,12.474,0,0,0,3.6-7.264,0.422,0.422,0,0,0,.22-0.221,2.036,2.036,0,0,0,.56-1.341V60.226a46.406,46.406,0,0,0-.56-6.929c-0.67-2.346-1.23-4.583-2.02-6.816a33.744,33.744,0,0,0-3.03-6.37,32.824,32.824,0,0,0-4.04-5.7,1.178,1.178,0,0,0-.57-0.45,3.39,3.39,0,0,0-.89-3.015,41.765,41.765,0,0,0-58.73,0,3.368,3.368,0,0,0-.9,3.015,1.911,1.911,0,0,0-.56.45,32.885,32.885,0,0,0-4.05,5.7,56.424,56.424,0,0,0-3.03,6.37,35.774,35.774,0,0,0-1.79,6.816,35.315,35.315,0,0,0-.57,6.929V69.5a1.842,1.842,0,0,0,.57,1.341A0.412,0.412,0,0,1,1096.89,71.061Z" transform="translate(-1085 -18.875)"/>
</svg>
