<svg xmlns="http://www.w3.org/2000/svg" width="25" height="25" viewBox="0 0 124.94 98.094">
  <defs>
    <style>
      .cls-1 {
        fill-rule: evenodd;
      }
    </style>
  </defs>
  <path id="Forma_1" data-name="Forma 1" class="cls-1" d="M994.724,101.574a44.271,44.271,0,0,0,17.886-12.989,27.732,27.732,0,0,0-.01-35.811q-6.54-8.221-17.876-12.991a66.02,66.02,0,0,0-49.29,0,44.247,44.247,0,0,0-17.881,12.991A28.124,28.124,0,0,0,921,70.68a27.374,27.374,0,0,0,4.952,15.606,40.722,40.722,0,0,0,13.594,12.329q-0.7,1.676-1.428,3.068a17.644,17.644,0,0,1-1.744,2.68q-1.011,1.293-1.568,2.019a26.687,26.687,0,0,1-1.813,2.055q-1.255,1.323-1.6,1.744a0.571,0.571,0,0,0-.279.31,0.836,0.836,0,0,1-.314.351,0.729,0.729,0,0,0-.279.347c-0.163.258-.244,0.381-0.244,0.381l-0.174.348a1.506,1.506,0,0,0-.139.419,2.7,2.7,0,0,0-.036.454,1.39,1.39,0,0,0,.071.452,2.3,2.3,0,0,0,.8,1.46,2.169,2.169,0,0,0,1.429.559h0.21a55.8,55.8,0,0,0,25.376-10.034,69.993,69.993,0,0,0,12.27,1.114A62.8,62.8,0,0,0,994.724,101.574Zm46.256,2.578a27.171,27.171,0,0,0-.28-31.663,41.394,41.394,0,0,0-14.22-12.4,35.858,35.858,0,0,1-3.07,28.287,46.613,46.613,0,0,1-13.39,14.768,61.68,61.68,0,0,1-18.4,8.986,73.686,73.686,0,0,1-21.542,3.137q-2.091,0-6.134-.277,14.012,9.192,32.9,9.192a70.037,70.037,0,0,0,12.272-1.112,58.579,58.579,0,0,0,19.38,8.916,57.73,57.73,0,0,0,6,1.114,2.114,2.114,0,0,0,1.53-.484,2.632,2.632,0,0,0,.91-1.532,0.5,0.5,0,0,1,.06-0.453q0.105-.036-0.03-0.452c-0.09-.282-0.14-0.42-0.14-0.42l-0.17-.346a3.1,3.1,0,0,0-.25-0.384,2.508,2.508,0,0,0-.28-0.348c-0.06-.069-0.17-0.186-0.31-0.349s-0.23-.265-0.28-0.311c-0.23-.28-0.76-0.861-1.6-1.741a26.52,26.52,0,0,1-1.81-2.056c-0.37-.488-0.9-1.162-1.57-2.02a17.031,17.031,0,0,1-1.74-2.685c-0.49-.929-0.97-1.948-1.43-3.062A40.892,40.892,0,0,0,1040.98,104.152Z" transform="translate(-921 -35)"/>
</svg>
