<?xml version="1.0" encoding="iso-8859-1"?>
<!-- Uploaded to: SVG Repo, www.svgrepo.com, Generator: SVG Repo Mixer Tools -->
<svg fill="#000000" height="25px" width="25px" version="1.1" id="Layer_1" xmlns="http://www.w3.org/2000/svg" xmlns:xlink="http://www.w3.org/1999/xlink" 
	 viewBox="0 0 511.932 511.932" xml:space="preserve">
<g transform="translate(1 1)">
	<g>
		<g>
			<path d="M415.542,150.83c24.298,0,43.39-19.092,43.39-43.39c0-24.298-19.091-43.39-43.39-43.39
				c-24.298,0-43.39,19.091-43.39,43.39C372.153,131.739,391.244,150.83,415.542,150.83z M415.542,81.407
				c14.753,0,26.034,11.281,26.034,26.034c0,14.753-11.281,26.034-26.034,26.034s-26.034-11.281-26.034-26.034
				C389.508,92.688,400.79,81.407,415.542,81.407z"/>
			<path d="M491.908,170.79c28.637-37.315,24.298-98.061-8.678-131.037C450.14,7.431,398.637,3.797,361.374,28.799
				C326.346,12.071,289.698,3.305,250.661,3.305c-0.223,0-0.444,0.008-0.667,0.008c-0.068-0.001-0.132-0.008-0.201-0.008
				c-0.868,0-2.603,0-3.471,0h-1.736c-0.35,0-0.7,0.043-1.049,0.106C107.976,7.192-1,118.501-1,254.966
				c0,63.459,23.575,121.47,62.42,165.768c0.237,0.615,0.539,1.198,0.929,1.717c0.819,1.228,1.834,2.058,2.948,2.605
				c44.745,48.728,108.412,79.807,179.281,81.494c0.292,0.045,0.584,0.077,0.876,0.077h1.736c0.868,0,2.603,0,3.471,0
				s2.603,0,4.339,0h1.736c0.35,0,0.7-0.043,1.049-0.106c135.561-3.781,244.552-115.075,245.405-250.687
				c0-28.303-4.803-55.802-13.619-81.742L491.908,170.79z M429.88,405.796c-22.054-14.971-45.571-27.049-70.125-36.05
				c12.785-33.534,19.978-69.329,20.957-106.102h24.201l3.686,5.207c0.989,1.648,2.731,2.667,4.7,3.063
				c0.734,0.25,1.487,0.408,2.242,0.408c1.325,0,2.648-0.452,3.858-1.122c1.186-0.541,2.26-1.319,3.084-2.35l3.686-5.207h58.618
				C482.816,317.69,462.5,367.087,429.88,405.796z M16.533,263.644H120.61c0.979,36.748,8.167,72.519,20.991,106.034
				c-24.55,8.942-48.15,20.934-70.435,35.791C38.707,366.809,18.501,317.538,16.533,263.644z M75.536,99.407
				c21.737,14.014,44.816,25.261,68.857,33.614c-14.554,35.58-22.735,73.863-23.784,113.267H16.533
				C18.588,190.015,40.528,138.782,75.536,99.407z M339.176,170.79l53.45,75.498H259.339v-95.586
				c21.988-0.61,43.913-3.54,65.302-8.792C327.792,152.38,332.606,162.228,339.176,170.79z M241.983,150.703v95.585H137.969
				c1.051-37.675,8.935-74.186,22.897-108.044C187.063,145.785,214.261,149.978,241.983,150.703z M168.11,122.031
				c17.636-36.537,42.601-69.513,73.873-96.902v108.208C216.936,132.621,192.109,128.814,168.11,122.031z M151.544,116.832
				c-22.13-7.654-43.402-17.902-63.314-30.641c35.052-33.744,80.568-56.684,131.173-63.445
				C190.987,50.07,168.109,81.965,151.544,116.832z M137.969,263.644h104.014v86.911c-28.701,0.777-56.87,5.397-84.019,13.663
				C145.793,332.483,138.943,298.564,137.969,263.644z M241.983,367.889v116.221c-33.571-29.251-59.78-64.815-77.508-104.243
				C189.51,372.561,215.495,368.548,241.983,367.889z M259.339,484.109V367.945c26.387,0.837,52.267,5.124,77.192,12.633
				C318.808,419.722,292.708,455.034,259.339,484.109z M259.339,350.555v-86.911h104.014c-0.974,34.929-7.827,68.858-20.004,100.6
				C316.258,355.962,288.069,351.333,259.339,350.555z M471.081,51.901c26.902,26.034,30.373,78.102,6.942,108.475l-60.644,85.912
				h-3.675l-60.644-85.912c-10.243-13.278-15.344-30.701-15.594-48.283c-0.255-22.4,7.458-45.112,22.537-60.191
				c15.62-14.753,35.58-22.563,55.539-22.563C435.502,29.339,455.461,37.149,471.081,51.901z M345.516,42.158
				c-19.799,21.008-28.304,53.081-24.442,82.997c-19.996,4.674-40.575,7.559-61.735,8.184V20.834
				c30.658,1.09,59.809,7.962,86.78,20.654C345.912,41.706,345.721,41.938,345.516,42.158z M82.528,418.054
				c20.679-13.749,42.626-24.716,65.48-32.856c16.89,38.001,41.241,72.696,72.158,102.095
				C166.46,480.297,118.448,455.076,82.528,418.054z M281.919,487.185c30.317-29.152,54.326-63.508,71.095-101.124
				c22.7,8.276,44.489,19.273,65.023,32.768C382.372,455.253,334.94,480.101,281.919,487.185z M484.809,246.288h-46.351
				l37.906-53.542C481.547,209.873,484.178,228.266,484.809,246.288z"/>
		</g>
	</g>
</g>
</svg>